<svg width="280" height="281" viewBox="0 0 280 281" fill="none" xmlns="http://www.w3.org/2000/svg">
<path d="M225.059 99.5183V10M180.376 54.7591H269.742" stroke="#3F3F3F" stroke-width="20" stroke-linecap="round" stroke-linejoin="round"/>
<path d="M76.1416 129.358H165.507" stroke="#3F3F3F" stroke-width="24" stroke-linecap="round" stroke-linejoin="round"/>
<path d="M76.1416 189.037H120.824" stroke="#3F3F3F" stroke-width="23" stroke-linecap="round" stroke-linejoin="round"/>
<path d="M133.96 54.8359C79.599 54.8359 52.4188 54.8359 35.1633 71.2925C34.4572 71.9659 33.7677 72.6565 33.0955 73.3638C16.667 90.6488 16.667 117.875 16.667 172.329V233.873C16.667 247.939 16.667 254.972 21.0294 259.342C25.3919 263.712 32.4131 263.712 46.4556 263.712H107.895C162.256 263.712 189.435 263.712 206.691 247.256C207.397 246.583 208.087 245.892 208.759 245.185C225.187 227.899 225.187 200.673 225.187 146.219" stroke="#FFE600" stroke-width="33.3333"/>
</svg>
