<svg width="1339" height="450" viewBox="0 0 1339 450" fill="none" xmlns="http://www.w3.org/2000/svg">
<path d="M543.445 127.524L540.315 131.638V51.6667H554.126V131.638L550.782 127.524H585.201L581.856 131.638V51.6667H595.667V141.667H498.667V51.6667H512.478V131.638L509.241 127.524H543.445Z" fill="#3F3F3F"/>
<path d="M569.942 430.667L536.529 386.824L551.333 378.467L590.667 430.667H569.942ZM504.667 430.667V340.667H522.713V430.667H504.667ZM517.215 392.738V378.338H550.487V392.738H517.215ZM553.024 387.595L536.247 385.538L569.942 340.667H589.398L553.024 387.595Z" fill="#3F3F3F"/>
<path d="M504.667 285.667V195.667H590.667V285.667H572.883V205.695L577.051 209.81H518.283L522.451 205.695V285.667H504.667Z" fill="#3F3F3F"/>
<path d="M653.322 141.667L632.586 116.707L638.25 113.347L661.386 141.667H653.322ZM616.362 141.667V91.2669H623.178V141.667H616.362ZM621.066 119.203V113.347H637.29V119.203H621.066ZM638.826 117.187L632.49 116.227L652.554 91.2669H659.946L638.826 117.187Z" fill="#3F3F3F"/>
<path d="M691.098 142.147C686.234 142.147 681.85 141.059 677.946 138.883C674.106 136.643 671.066 133.603 668.826 129.763C666.586 125.859 665.466 121.411 665.466 116.419C665.466 111.363 666.586 106.915 668.826 103.075C671.066 99.2349 674.106 96.2269 677.946 94.0509C681.786 91.8749 686.17 90.7869 691.098 90.7869C696.09 90.7869 700.506 91.8749 704.346 94.0509C708.25 96.2269 711.29 99.2349 713.466 103.075C715.706 106.915 716.826 111.363 716.826 116.419C716.826 121.411 715.706 125.859 713.466 129.763C711.29 133.603 708.25 136.643 704.346 138.883C700.442 141.059 696.026 142.147 691.098 142.147ZM691.098 136.099C694.746 136.099 697.978 135.299 700.794 133.699C703.61 132.035 705.818 129.731 707.418 126.787C709.082 123.779 709.914 120.323 709.914 116.419C709.914 112.451 709.082 108.995 707.418 106.051C705.818 103.107 703.61 100.835 700.794 99.2349C697.978 97.5709 694.778 96.7389 691.194 96.7389C687.61 96.7389 684.41 97.5709 681.594 99.2349C678.778 100.835 676.538 103.107 674.874 106.051C673.21 108.995 672.378 112.451 672.378 116.419C672.378 120.323 673.21 123.779 674.874 126.787C676.538 129.731 678.778 132.035 681.594 133.699C684.41 135.299 687.578 136.099 691.098 136.099Z" fill="#3F3F3F"/>
<path d="M721.896 141.571L722.376 135.715C722.824 135.779 723.24 135.875 723.624 136.003C724.072 136.067 724.456 136.099 724.776 136.099C726.824 136.099 728.456 135.331 729.672 133.795C730.952 132.259 731.912 130.211 732.552 127.651C733.192 125.091 733.64 122.211 733.896 119.011C734.152 115.747 734.376 112.483 734.568 109.219L735.432 91.2669H772.392V141.667H765.576V95.2029L767.304 97.2189H739.848L741.48 95.1069L740.712 109.699C740.52 114.051 740.168 118.211 739.656 122.179C739.208 126.147 738.472 129.635 737.448 132.643C736.488 135.651 735.144 138.019 733.416 139.747C731.688 141.411 729.48 142.243 726.792 142.243C726.024 142.243 725.224 142.179 724.392 142.051C723.624 141.923 722.792 141.763 721.896 141.571Z" fill="#3F3F3F"/>
<path d="M823.065 141.667V130.531L822.777 128.707V110.083C822.777 105.795 821.561 102.499 819.129 100.195C816.761 97.8909 813.209 96.7389 808.473 96.7389C805.209 96.7389 802.105 97.2829 799.161 98.3709C796.217 99.4589 793.721 100.899 791.673 102.691L788.601 97.6029C791.161 95.4269 794.233 93.7629 797.817 92.6109C801.401 91.3949 805.177 90.7869 809.145 90.7869C815.673 90.7869 820.697 92.4189 824.217 95.6829C827.801 98.8829 829.593 103.779 829.593 110.371V141.667H823.065ZM805.689 142.147C801.913 142.147 798.617 141.539 795.801 140.323C793.049 139.043 790.937 137.315 789.465 135.139C787.993 132.899 787.257 130.339 787.257 127.459C787.257 124.835 787.865 122.467 789.081 120.355C790.361 118.179 792.409 116.451 795.225 115.171C798.105 113.827 801.945 113.155 806.745 113.155H824.121V118.243H806.937C802.073 118.243 798.681 119.107 796.761 120.835C794.905 122.563 793.977 124.707 793.977 127.267C793.977 130.147 795.097 132.451 797.337 134.179C799.577 135.907 802.713 136.771 806.745 136.771C810.585 136.771 813.881 135.907 816.633 134.179C819.449 132.387 821.497 129.827 822.777 126.499L824.313 131.203C823.033 134.531 820.793 137.187 817.593 139.171C814.457 141.155 810.489 142.147 805.689 142.147Z" fill="#3F3F3F"/>
<path d="M637.483 286.147C632.491 286.147 628.011 285.059 624.043 282.883C620.139 280.643 617.067 277.603 614.827 273.763C612.587 269.859 611.467 265.411 611.467 260.419C611.467 255.363 612.587 250.915 614.827 247.075C617.067 243.235 620.139 240.227 624.043 238.051C628.011 235.875 632.491 234.787 637.483 234.787C641.771 234.787 645.643 235.619 649.099 237.283C652.555 238.947 655.275 241.443 657.259 244.771L652.171 248.227C650.443 245.667 648.299 243.779 645.739 242.563C643.179 241.347 640.395 240.739 637.387 240.739C633.803 240.739 630.571 241.571 627.691 243.235C624.811 244.835 622.539 247.107 620.875 250.051C619.211 252.995 618.379 256.451 618.379 260.419C618.379 264.387 619.211 267.843 620.875 270.787C622.539 273.731 624.811 276.035 627.691 277.699C630.571 279.299 633.803 280.099 637.387 280.099C640.395 280.099 643.179 279.491 645.739 278.275C648.299 277.059 650.443 275.203 652.171 272.707L657.259 276.163C655.275 279.427 652.555 281.923 649.099 283.651C645.643 285.315 641.771 286.147 637.483 286.147Z" fill="#3F3F3F"/>
<path d="M670.457 285.667V235.267H677.273V275.299L710.969 235.267H717.017V285.667H710.201V245.539L676.601 285.667H670.457Z" fill="#3F3F3F"/>
<path d="M728.294 285.667L749.606 258.019L749.51 261.379L729.254 235.267H736.934L753.542 256.867L750.662 256.771L767.27 235.267H774.758L754.31 261.667L754.406 258.019L775.91 285.667H768.134L750.566 262.627L753.254 263.011L735.974 285.667H728.294Z" fill="#3F3F3F"/>
<path d="M806.036 286.147C801.172 286.147 796.788 285.059 792.884 282.883C789.044 280.643 786.004 277.603 783.764 273.763C781.524 269.859 780.404 265.411 780.404 260.419C780.404 255.363 781.524 250.915 783.764 247.075C786.004 243.235 789.044 240.227 792.884 238.051C796.724 235.875 801.108 234.787 806.036 234.787C811.028 234.787 815.444 235.875 819.284 238.051C823.188 240.227 826.228 243.235 828.404 247.075C830.644 250.915 831.764 255.363 831.764 260.419C831.764 265.411 830.644 269.859 828.404 273.763C826.228 277.603 823.188 280.643 819.284 282.883C815.38 285.059 810.964 286.147 806.036 286.147ZM806.036 280.099C809.684 280.099 812.916 279.299 815.732 277.699C818.548 276.035 820.756 273.731 822.356 270.787C824.02 267.779 824.852 264.323 824.852 260.419C824.852 256.451 824.02 252.995 822.356 250.051C820.756 247.107 818.548 244.835 815.732 243.235C812.916 241.571 809.716 240.739 806.132 240.739C802.548 240.739 799.348 241.571 796.532 243.235C793.716 244.835 791.476 247.107 789.812 250.051C788.148 252.995 787.316 256.451 787.316 260.419C787.316 264.323 788.148 267.779 789.812 270.787C791.476 273.731 793.716 276.035 796.532 277.699C799.348 279.299 802.516 280.099 806.036 280.099Z" fill="#3F3F3F"/>
<path d="M836.834 285.571L837.314 279.715C837.762 279.779 838.178 279.875 838.562 280.003C839.01 280.067 839.394 280.099 839.714 280.099C841.762 280.099 843.394 279.331 844.61 277.795C845.89 276.259 846.85 274.211 847.49 271.651C848.13 269.091 848.578 266.211 848.834 263.011C849.09 259.747 849.314 256.483 849.506 253.219L850.37 235.267H887.33V285.667H880.514V239.203L882.242 241.219H854.786L856.418 239.107L855.65 253.699C855.458 258.051 855.106 262.211 854.594 266.179C854.146 270.147 853.41 273.635 852.386 276.643C851.426 279.651 850.082 282.019 848.354 283.747C846.626 285.411 844.418 286.243 841.73 286.243C840.962 286.243 840.162 286.179 839.33 286.051C838.562 285.923 837.73 285.763 836.834 285.571Z" fill="#3F3F3F"/>
<path d="M927.443 286.147C922.579 286.147 918.195 285.059 914.291 282.883C910.451 280.643 907.411 277.603 905.171 273.763C902.931 269.859 901.811 265.411 901.811 260.419C901.811 255.363 902.931 250.915 905.171 247.075C907.411 243.235 910.451 240.227 914.291 238.051C918.131 235.875 922.515 234.787 927.443 234.787C932.435 234.787 936.851 235.875 940.691 238.051C944.595 240.227 947.635 243.235 949.811 247.075C952.051 250.915 953.171 255.363 953.171 260.419C953.171 265.411 952.051 269.859 949.811 273.763C947.635 277.603 944.595 280.643 940.691 282.883C936.787 285.059 932.371 286.147 927.443 286.147ZM927.443 280.099C931.091 280.099 934.323 279.299 937.139 277.699C939.955 276.035 942.163 273.731 943.763 270.787C945.427 267.779 946.259 264.323 946.259 260.419C946.259 256.451 945.427 252.995 943.763 250.051C942.163 247.107 939.955 244.835 937.139 243.235C934.323 241.571 931.123 240.739 927.539 240.739C923.955 240.739 920.755 241.571 917.939 243.235C915.123 244.835 912.883 247.107 911.219 250.051C909.555 252.995 908.723 256.451 908.723 260.419C908.723 264.323 909.555 267.779 911.219 270.787C912.883 273.731 915.123 276.035 917.939 277.699C920.755 279.299 923.923 280.099 927.443 280.099Z" fill="#3F3F3F"/>
<path d="M967.738 285.667V235.267H1003.45V241.219H972.826L974.554 239.491V285.667H967.738Z" fill="#3F3F3F"/>
<path d="M1013.3 285.667V235.267H1020.12V285.667H1013.3ZM1016.76 224.131C1015.35 224.131 1014.16 223.651 1013.2 222.691C1012.24 221.731 1011.76 220.579 1011.76 219.235C1011.76 217.891 1012.24 216.771 1013.2 215.875C1014.16 214.915 1015.35 214.435 1016.76 214.435C1018.16 214.435 1019.35 214.883 1020.31 215.779C1021.27 216.675 1021.75 217.795 1021.75 219.139C1021.75 220.547 1021.27 221.731 1020.31 222.691C1019.41 223.651 1018.23 224.131 1016.76 224.131Z" fill="#3F3F3F"/>
<path d="M1071.42 264.355C1068.48 265.635 1065.5 266.659 1062.49 267.427C1059.55 268.131 1056.61 268.483 1053.66 268.483C1047.71 268.483 1043.01 267.139 1039.55 264.451C1036.09 261.699 1034.37 257.475 1034.37 251.779V235.267H1041.09V251.395C1041.09 255.235 1042.33 258.115 1044.83 260.035C1047.33 261.955 1050.69 262.915 1054.91 262.915C1057.47 262.915 1060.16 262.595 1062.97 261.955C1065.79 261.251 1068.64 260.259 1071.52 258.979L1071.42 264.355ZM1070.85 285.667V235.267H1077.66V285.667H1070.85Z" fill="#3F3F3F"/>
<path d="M1097.02 285.667V235.267H1103.84V257.539H1135.61V235.267H1142.43V285.667H1135.61V263.395H1103.84V285.667H1097.02Z" fill="#3F3F3F"/>
<path d="M1182.54 286.147C1177.67 286.147 1173.29 285.059 1169.38 282.883C1165.54 280.643 1162.5 277.603 1160.26 273.763C1158.02 269.859 1156.9 265.411 1156.9 260.419C1156.9 255.363 1158.02 250.915 1160.26 247.075C1162.5 243.235 1165.54 240.227 1169.38 238.051C1173.22 235.875 1177.61 234.787 1182.54 234.787C1187.53 234.787 1191.94 235.875 1195.78 238.051C1199.69 240.227 1202.73 243.235 1204.9 247.075C1207.14 250.915 1208.26 255.363 1208.26 260.419C1208.26 265.411 1207.14 269.859 1204.9 273.763C1202.73 277.603 1199.69 280.643 1195.78 282.883C1191.88 285.059 1187.46 286.147 1182.54 286.147ZM1182.54 280.099C1186.18 280.099 1189.42 279.299 1192.23 277.699C1195.05 276.035 1197.26 273.731 1198.86 270.787C1200.52 267.779 1201.35 264.323 1201.35 260.419C1201.35 256.451 1200.52 252.995 1198.86 250.051C1197.26 247.107 1195.05 244.835 1192.23 243.235C1189.42 241.571 1186.22 240.739 1182.63 240.739C1179.05 240.739 1175.85 241.571 1173.03 243.235C1170.22 244.835 1167.98 247.107 1166.31 250.051C1164.65 252.995 1163.82 256.451 1163.82 260.419C1163.82 264.323 1164.65 267.779 1166.31 270.787C1167.98 273.731 1170.22 276.035 1173.03 277.699C1175.85 279.299 1179.02 280.099 1182.54 280.099Z" fill="#3F3F3F"/>
<path d="M1222.83 285.667V235.267H1258.54V241.219H1227.92L1229.65 239.491V285.667H1222.83Z" fill="#3F3F3F"/>
<path d="M1286.79 286.147C1281.92 286.147 1277.54 285.059 1273.63 282.883C1269.79 280.643 1266.75 277.603 1264.51 273.763C1262.27 269.859 1261.15 265.411 1261.15 260.419C1261.15 255.363 1262.27 250.915 1264.51 247.075C1266.75 243.235 1269.79 240.227 1273.63 238.051C1277.47 235.875 1281.86 234.787 1286.79 234.787C1291.78 234.787 1296.19 235.875 1300.03 238.051C1303.94 240.227 1306.98 243.235 1309.15 247.075C1311.39 250.915 1312.51 255.363 1312.51 260.419C1312.51 265.411 1311.39 269.859 1309.15 273.763C1306.98 277.603 1303.94 280.643 1300.03 282.883C1296.13 285.059 1291.71 286.147 1286.79 286.147ZM1286.79 280.099C1290.43 280.099 1293.67 279.299 1296.48 277.699C1299.3 276.035 1301.51 273.731 1303.11 270.787C1304.77 267.779 1305.6 264.323 1305.6 260.419C1305.6 256.451 1304.77 252.995 1303.11 250.051C1301.51 247.107 1299.3 244.835 1296.48 243.235C1293.67 241.571 1290.47 240.739 1286.88 240.739C1283.3 240.739 1280.1 241.571 1277.28 243.235C1274.47 244.835 1272.23 247.107 1270.56 250.051C1268.9 252.995 1268.07 256.451 1268.07 260.419C1268.07 264.323 1268.9 267.779 1270.56 270.787C1272.23 273.731 1274.47 276.035 1277.28 277.699C1280.1 279.299 1283.27 280.099 1286.79 280.099Z" fill="#3F3F3F"/>
<path d="M637.099 431.147C632.235 431.147 627.851 430.059 623.947 427.883C620.107 425.643 617.067 422.603 614.827 418.763C612.587 414.859 611.467 410.411 611.467 405.419C611.467 400.363 612.587 395.915 614.827 392.075C617.067 388.235 620.107 385.227 623.947 383.051C627.787 380.875 632.171 379.787 637.099 379.787C642.091 379.787 646.507 380.875 650.347 383.051C654.251 385.227 657.291 388.235 659.467 392.075C661.707 395.915 662.827 400.363 662.827 405.419C662.827 410.411 661.707 414.859 659.467 418.763C657.291 422.603 654.251 425.643 650.347 427.883C646.443 430.059 642.027 431.147 637.099 431.147ZM637.099 425.099C640.747 425.099 643.979 424.299 646.795 422.699C649.611 421.035 651.819 418.731 653.419 415.787C655.083 412.779 655.915 409.323 655.915 405.419C655.915 401.451 655.083 397.995 653.419 395.051C651.819 392.107 649.611 389.835 646.795 388.235C643.979 386.571 640.779 385.739 637.195 385.739C633.611 385.739 630.411 386.571 627.595 388.235C624.779 389.835 622.539 392.107 620.875 395.051C619.211 397.995 618.379 401.451 618.379 405.419C618.379 409.323 619.211 412.779 620.875 415.787C622.539 418.731 624.779 421.035 627.595 422.699C630.411 424.299 633.579 425.099 637.099 425.099Z" fill="#3F3F3F"/>
<path d="M677.394 430.667V380.267H684.21V402.539H715.986V380.267H722.802V430.667H715.986V408.395H684.21V430.667H677.394Z" fill="#3F3F3F"/>
<path d="M763.295 431.147C758.303 431.147 753.823 430.059 749.855 427.883C745.951 425.643 742.879 422.603 740.639 418.763C738.399 414.859 737.279 410.411 737.279 405.419C737.279 400.363 738.399 395.915 740.639 392.075C742.879 388.235 745.951 385.227 749.855 383.051C753.823 380.875 758.303 379.787 763.295 379.787C767.583 379.787 771.455 380.619 774.911 382.283C778.367 383.947 781.087 386.443 783.071 389.771L777.983 393.227C776.255 390.667 774.111 388.779 771.551 387.563C768.991 386.347 766.207 385.739 763.199 385.739C759.615 385.739 756.383 386.571 753.503 388.235C750.623 389.835 748.351 392.107 746.687 395.051C745.023 397.995 744.191 401.451 744.191 405.419C744.191 409.387 745.023 412.843 746.687 415.787C748.351 418.731 750.623 421.035 753.503 422.699C756.383 424.299 759.615 425.099 763.199 425.099C766.207 425.099 768.991 424.491 771.551 423.275C774.111 422.059 776.255 420.203 777.983 417.707L783.071 421.163C781.087 424.427 778.367 426.923 774.911 428.651C771.455 430.315 767.583 431.147 763.295 431.147Z" fill="#3F3F3F"/>
<path d="M796.383 449.771C794.015 449.771 791.743 449.387 789.567 448.619C787.455 447.851 785.631 446.699 784.095 445.163L787.263 440.075C788.543 441.291 789.919 442.219 791.391 442.859C792.927 443.563 794.623 443.915 796.479 443.915C798.719 443.915 800.639 443.275 802.239 441.995C803.903 440.779 805.471 438.603 806.943 435.467L810.207 428.075L810.975 427.019L831.711 380.267H838.431L813.183 436.715C811.775 439.979 810.207 442.571 808.479 444.491C806.815 446.411 804.991 447.755 803.007 448.523C801.023 449.355 798.815 449.771 796.383 449.771ZM809.823 432.107L786.591 380.267H793.695L814.239 426.539L809.823 432.107Z" fill="#3F3F3F"/>
<path d="M837.678 430.571L838.158 424.715C838.606 424.779 839.022 424.875 839.406 425.003C839.854 425.067 840.238 425.099 840.558 425.099C842.606 425.099 844.238 424.331 845.454 422.795C846.734 421.259 847.694 419.211 848.334 416.651C848.974 414.091 849.422 411.211 849.678 408.011C849.934 404.747 850.158 401.483 850.35 398.219L851.214 380.267H888.174V430.667H881.358V384.203L883.086 386.219H855.63L857.262 384.107L856.494 398.699C856.302 403.051 855.95 407.211 855.438 411.179C854.99 415.147 854.254 418.635 853.23 421.643C852.27 424.651 850.926 427.019 849.198 428.747C847.47 430.411 845.262 431.243 842.574 431.243C841.806 431.243 841.006 431.179 840.174 431.051C839.406 430.923 838.574 430.763 837.678 430.571Z" fill="#3F3F3F"/>
<path d="M929.246 398.027C935.582 398.091 940.382 399.499 943.646 402.251C946.974 405.003 948.638 408.971 948.638 414.155C948.638 419.531 946.846 423.659 943.262 426.539C939.742 429.419 934.622 430.827 927.902 430.763L907.55 430.667V380.267H914.366V397.835L929.246 398.027ZM927.518 425.579C932.19 425.643 935.71 424.715 938.078 422.795C940.51 420.811 941.726 417.931 941.726 414.155C941.726 410.379 940.542 407.627 938.174 405.899C935.806 404.107 932.254 403.179 927.518 403.115L914.366 402.923V425.387L927.518 425.579Z" fill="#3F3F3F"/>
<path d="M966.182 430.667V384.395L967.91 386.219H947.078V380.267H992.102V386.219H971.27L972.998 384.395V430.667H966.182Z" fill="#3F3F3F"/>
<path d="M1002.82 449.771C1000.45 449.771 998.181 449.387 996.005 448.619C993.893 447.851 992.069 446.699 990.533 445.163L993.701 440.075C994.981 441.291 996.357 442.219 997.829 442.859C999.365 443.563 1001.06 443.915 1002.92 443.915C1005.16 443.915 1007.08 443.275 1008.68 441.995C1010.34 440.779 1011.91 438.603 1013.38 435.467L1016.64 428.075L1017.41 427.019L1038.15 380.267H1044.87L1019.62 436.715C1018.21 439.979 1016.64 442.571 1014.92 444.491C1013.25 446.411 1011.43 447.755 1009.44 448.523C1007.46 449.355 1005.25 449.771 1002.82 449.771ZM1016.26 432.107L993.029 380.267H1000.13L1020.68 426.539L1016.26 432.107Z" fill="#3F3F3F"/>
<path d="M1055.49 430.667V380.267H1077.76C1083.46 380.267 1087.94 381.355 1091.2 383.531C1094.53 385.707 1096.19 388.907 1096.19 393.131C1096.19 397.227 1094.62 400.395 1091.49 402.635C1088.35 404.811 1084.22 405.899 1079.1 405.899L1080.45 403.883C1086.46 403.883 1090.88 405.003 1093.7 407.243C1096.51 409.483 1097.92 412.715 1097.92 416.939C1097.92 421.291 1096.32 424.683 1093.12 427.115C1089.98 429.483 1085.09 430.667 1078.43 430.667H1055.49ZM1062.11 425.291H1078.14C1082.43 425.291 1085.66 424.619 1087.84 423.275C1090.08 421.867 1091.2 419.627 1091.2 416.555C1091.2 413.483 1090.21 411.243 1088.22 409.835C1086.24 408.427 1083.1 407.723 1078.82 407.723H1062.11V425.291ZM1062.11 402.635H1077.28C1081.18 402.635 1084.16 401.899 1086.21 400.427C1088.32 398.955 1089.38 396.811 1089.38 393.995C1089.38 391.179 1088.32 389.067 1086.21 387.659C1084.16 386.251 1081.18 385.547 1077.28 385.547H1062.11V402.635Z" fill="#3F3F3F"/>
<path d="M1145.19 430.667V419.531L1144.9 417.707V399.083C1144.9 394.795 1143.69 391.499 1141.25 389.195C1138.89 386.891 1135.33 385.739 1130.6 385.739C1127.33 385.739 1124.23 386.283 1121.29 387.371C1118.34 388.459 1115.85 389.899 1113.8 391.691L1110.73 386.603C1113.29 384.427 1116.36 382.763 1119.94 381.611C1123.53 380.395 1127.3 379.787 1131.27 379.787C1137.8 379.787 1142.82 381.419 1146.34 384.683C1149.93 387.883 1151.72 392.779 1151.72 399.371V430.667H1145.19ZM1127.81 431.147C1124.04 431.147 1120.74 430.539 1117.93 429.323C1115.17 428.043 1113.06 426.315 1111.59 424.139C1110.12 421.899 1109.38 419.339 1109.38 416.459C1109.38 413.835 1109.99 411.467 1111.21 409.355C1112.49 407.179 1114.53 405.451 1117.35 404.171C1120.23 402.827 1124.07 402.155 1128.87 402.155H1146.25V407.243H1129.06C1124.2 407.243 1120.81 408.107 1118.89 409.835C1117.03 411.563 1116.1 413.707 1116.1 416.267C1116.1 419.147 1117.22 421.451 1119.46 423.179C1121.7 424.907 1124.84 425.771 1128.87 425.771C1132.71 425.771 1136.01 424.907 1138.76 423.179C1141.57 421.387 1143.62 418.827 1144.9 415.499L1146.44 420.203C1145.16 423.531 1142.92 426.187 1139.72 428.171C1136.58 430.155 1132.61 431.147 1127.81 431.147Z" fill="#3F3F3F"/>
<path d="M1169.86 430.667V380.267H1176.68V402.539H1208.45V380.267H1215.27V430.667H1208.45V408.395H1176.68V430.667H1169.86Z" fill="#3F3F3F"/>
<path d="M1234.64 430.667V380.267H1241.46V402.539H1273.24V380.267H1280.05V430.667H1273.24V408.395H1241.46V430.667H1234.64Z" fill="#3F3F3F"/>
<path d="M1331.97 430.667V412.523L1333.22 413.963H1316.13C1309.67 413.963 1304.61 412.555 1300.96 409.739C1297.31 406.923 1295.49 402.827 1295.49 397.451C1295.49 391.691 1297.44 387.403 1301.35 384.587C1305.25 381.707 1310.47 380.267 1316.99 380.267H1338.21V430.667H1331.97ZM1295.11 430.667L1308.93 411.275H1316.03L1302.5 430.667H1295.11ZM1331.97 410.507V384.203L1333.22 386.219H1317.19C1312.51 386.219 1308.87 387.115 1306.24 388.907C1303.68 390.699 1302.4 393.611 1302.4 397.643C1302.4 405.131 1307.17 408.875 1316.71 408.875H1333.22L1331.97 410.507Z" fill="#3F3F3F"/>
<path d="M356.542 162.417V16.6667M283.667 89.5417H429.417" stroke="#3F3F3F" stroke-width="33.3333" stroke-linecap="round" stroke-linejoin="round"/>
<path d="M113.667 211H259.417" stroke="#3F3F3F" stroke-width="33.3333" stroke-linecap="round" stroke-linejoin="round"/>
<path d="M113.667 308.167H186.542" stroke="#3F3F3F" stroke-width="33.3333" stroke-linecap="round" stroke-linejoin="round"/>
<path d="M207.964 89.6667C119.305 89.6667 74.976 89.6668 46.8334 116.461C45.6817 117.557 44.5572 118.681 43.4609 119.833C16.667 147.976 16.667 192.305 16.667 280.964V381.167C16.667 404.069 16.667 415.52 23.7818 422.635C30.8968 429.75 42.3479 429.75 65.2503 429.75H165.453C254.113 429.75 298.441 429.75 326.585 402.956C327.736 401.861 328.861 400.736 329.957 399.585C356.75 371.44 356.75 327.113 356.75 238.453" stroke="#FFE600" stroke-width="33.3333"/>
</svg>
