<svg width="250" height="250" viewBox="0 0 250 250" fill="none" xmlns="http://www.w3.org/2000/svg">
<path d="M192.111 96.6648V22M154.779 59.3324H229.444" stroke="#1A1A1A" stroke-width="21" stroke-linecap="round" stroke-linejoin="round"/>
<path d="M67.6914 121.553H142.356" stroke="#1A1A1A" stroke-width="21" stroke-linecap="round" stroke-linejoin="round"/>
<path d="M67.6914 171.33H105.024" stroke="#1A1A1A" stroke-width="21" stroke-linecap="round" stroke-linejoin="round"/>
<path d="M115.998 59.3965C70.5795 59.3965 47.8705 59.3965 33.4536 73.1225C32.8637 73.6841 32.2876 74.2601 31.726 74.8501C18 89.267 18 111.976 18 157.394V208.726C18 220.459 18 226.325 21.6448 229.97C25.2897 233.614 31.1558 233.614 42.8883 233.614H94.2204C139.639 233.614 162.347 233.614 176.765 219.889C177.355 219.327 177.931 218.751 178.492 218.161C192.218 203.744 192.218 181.035 192.218 135.617" stroke="#FFE600" stroke-width="21"/>
</svg>
